<?xml version="1.0" encoding="UTF-8" standalone="no"?>
<!-- Created with Inkscape (http://www.inkscape.org/) -->

<svg
   width="562.35687mm"
   height="562.27039mm"
   viewBox="0 0 562.35687 562.27039"
   version="1.1"
   id="svg5"
   xml:space="preserve"
   xmlns="http://www.w3.org/2000/svg"
   xmlns:svg="http://www.w3.org/2000/svg"><defs
     id="defs2" /><g
     id="layer1"
     transform="translate(-1.4817621,831.86118)"><path
       style="fill:#ffffff;stroke-width:5.41626"
       d="m 918.05591,-1026.856 c -286.74721,-44.413 -537.37892,-194.9874 -706.52008,-424.4628 -92.69465,-125.7597 -153.707402,-263.7918 -187.629744,-424.4839 -19.1057547,-90.5051 -24.23529922,-257.9289 -10.715945,-349.7589 35.110552,-238.4879 137.608629,-443.2692 306.302629,-611.9632 87.57982,-87.5798 177.6088,-150.6116 295.25263,-206.7144 73.9595,-35.2704 123.4652,-53.0735 200.6893,-72.1713 98.6994,-24.4087 129.61275,-27.7323 256.9846,-27.6294 142.2193,0.1149 201.3567,9.1077 324.8068,49.392 170.0719,55.4979 308.0244,141.6266 433.8322,270.8571 149.6585,153.7301 238.4425,322.5085 284.9364,541.6644 13.5569,63.9027 14.7844,79.7567 15.0328,194.1585 0.2822,129.9035 -2.9102,160.3975 -26.9928,257.8547 -25.478,103.1037 -73.1895,217.9349 -126.9065,305.4363 -165.5668,269.6969 -448.0052,454.0007 -763.0838,497.9465 -74.9887,10.4591 -228.06888,10.3942 -295.98849,-0.1256 z m 305.32349,-443.9317 c 206.4441,-30.1165 399.0147,-114.8954 553.3228,-243.5994 57.6616,-48.094 147.8155,-143.5669 186.3828,-197.3792 37.9737,-52.9841 100.5097,-156.7549 100.5097,-166.7834 0,-11.2595 -31.3636,-70.6291 -63.6316,-120.4515 -179.677,-277.4241 -477.3818,-461.1539 -808.0204,-498.6733 -72.1692,-8.1894 -241.00431,-3.7396 -306.38435,8.0751 -141.94634,25.6508 -269.62327,72.5918 -383.53236,141.0072 -80.0645,48.0879 -132.29595,88.2942 -200.71619,154.5056 -68.72387,66.5052 -109.92651,115.438 -156.60412,185.9851 -49.979334,75.5374 -71.285407,117.9513 -67.253057,133.8807 1.856488,7.3338 18.12895,38.2602 36.161027,68.7253 171.48443,289.7221 464.57016,486.0089 798.45122,534.7426 70.62147,10.308 240.54593,10.289 311.31453,-0.033 z"
       id="path301"
       transform="scale(0.26458333)" /><path
       style="fill:#ffffff;stroke-width:5.41626"
       d="m 1031.7973,-1519.744 c -99.90985,-13.5204 -150.62371,-27.4051 -211.23406,-57.8328 -157.3015,-78.9687 -264.91519,-218.9519 -304.10328,-395.5757 -11.33209,-51.0746 -11.39006,-166.434 -0.10946,-217.8086 9.81417,-44.6961 31.93805,-108.0715 51.02148,-146.1547 37.11315,-74.0634 118.2377,-165.1836 190.24409,-213.6846 192.69599,-129.7934 456.63053,-123.7066 643.10773,14.8314 114.2534,84.8814 191.6009,205.1277 219.8227,341.7416 15.6125,75.5756 11.7369,194.5677 -8.5385,262.1616 -54.6176,182.0831 -180.8199,317.0357 -355.4359,380.0803 -65.7006,23.721 -173.4881,39.1819 -224.7748,32.2415 z"
       id="path303"
       transform="scale(0.26458333)" /></g></svg>
